# xmcd
#
# Track frame offsets:
#	150
#	9454
#	21168
#	38097
#	49206
#	64550
#	76014
#	86591
#	94478
#	104664
#	117412
#	129973
#	139938
#	151056
#	164979
#	180061
#	194125
#	205556
#	219483
#	229012
#	245297
#
# Disc length: 3433 seconds
#
# Revision: 0
# Processed by: cddbd v1.5.2PL0 Copyright (c) Steve Scherf et al.
# Submitted via: audiograbber 1.83.01
#
DISCID=180d6715
DTITLE=Various Artist - Sat.1 - Die Hit-Giganten - Oldies [CD 2) CD2
DYEAR=2009
DGENRE=Oldies
TTITLE0=Elvis Presley - Don't Be Cruel
TTITLE1=The Supremes - Baby Love
TTITLE2=Les Humphries Singers - Mama Loo
TTITLE3=Marvin Gaye and Tammi Terrell - Ain't No Mountain High Enough
TTITLE4=Barry White - You're The First, The Last, My Everything
TTITLE5=Chris Andrews - Yesterday Man
TTITLE6=Ohio Express - Yummy, Yummy, Yummy
TTITLE7=The Swinging Blue Jeans - Hippy Hippy Shake
TTITLE8=1910 Fruitgum Company - Simon Says
TTITLE9=Bobby Vinton - Sealed With A Kiss
TTITLE10=Bay City Rollers - Bye Bye Baby
TTITLE11=Lesley Gore - It's My Party
TTITLE12=Peggy March - I Will Follow Him (Chariot)
TTITLE13=Harry Belafonte - Day-O (Banana Boat Song)
TTITLE14=Louis Armstrong - What A Wonderful World
TTITLE15=Dean Martin - That's Amore (That's Love)
TTITLE16=The Cascades - Rhythm Of The Rain
TTITLE17=The Tremeloes - Here Comes My Baby
TTITLE18=The Troggs - With A Girl Like You
TTITLE19=The Righteous Brothers - Unchained Melody
TTITLE20=Otis Redding - (Sittin' On) The Dock Of The Bay
EXTD=
EXTT0=
EXTT1=
EXTT2=
EXTT3=
EXTT4=
EXTT5=
EXTT6=
EXTT7=
EXTT8=
EXTT9=
EXTT10=
EXTT11=
EXTT12=
EXTT13=
EXTT14=
EXTT15=
EXTT16=
EXTT17=
EXTT18=
EXTT19=
EXTT20=
PLAYORDER=
